<?xml version="1.0" standalone="no"?>
<!DOCTYPE svg PUBLIC "-//W3C//DTD SVG 20010904//EN"
 "http://www.w3.org/TR/2001/REC-SVG-20010904/DTD/svg10.dtd">
<svg version="1.0" xmlns="http://www.w3.org/2000/svg"
 width="500.000000pt" height="500.000000pt" viewBox="0 0 500.000000 500.000000"
 preserveAspectRatio="xMidYMid meet">
<metadata>
Created by potrace 1.14, written by Peter Selinger 2001-2017
</metadata>
<g transform="translate(0.000000,500.000000) scale(0.100000,-0.100000)"
fill="#000000" stroke="none">
<path d="M0 2500 l0 -2500 2500 0 2500 0 0 2500 0 2500 -2500 0 -2500 0 0
-2500z m1320 170 l0 -1040 110 0 110 0 0 -190 0 -190 -162 0 c-108 0 -184 5
-226 15 -64 15 -141 51 -178 83 -44 38 -94 116 -116 180 l-23 67 -3 1058 -3
1057 246 0 245 0 0 -1040z m1514 356 c202 -39 337 -177 398 -407 21 -82 22
-102 25 -726 l4 -643 -245 0 -246 0 0 548 c0 301 -4 575 -9 609 -13 87 -52
168 -93 192 -108 67 -302 37 -395 -61 -65 -67 -63 -47 -63 -698 l0 -590 -250
0 -250 0 2 873 3 872 248 3 247 2 0 -150 c0 -82 4 -150 8 -150 5 0 22 28 38
63 42 91 159 205 239 235 105 39 226 49 339 28z m1146 -1237 c20 -5 50 -20 69
-33 78 -58 107 -137 99 -277 -3 -68 -10 -94 -32 -136 -49 -89 -117 -123 -247
-125 -209 -2 -308 104 -297 316 7 120 50 201 131 243 56 29 187 35 277 12z"/>
</g>
</svg>
